<svg xmlns="http://www.w3.org/2000/svg" xmlns:xlink="http://www.w3.org/1999/xlink" version="1.1" x="0px" y="0px" width="100px" height="100px" viewBox="0 0 100 100" enable-background="new 0 0 100 100" xml:space="preserve">
<g id="Captions">
	<g>
		<path fill-rule="evenodd" clip-rule="evenodd" d="M44.058,24.395c0.36,0.758,1.27,1.087,2.028,0.727    c0.764-0.359,1.09-1.266,0.732-2.026c-0.359-0.764-1.268-1.089-2.03-0.734C44.027,22.723,43.702,23.63,44.058,24.395z"/>
		<path fill-rule="evenodd" clip-rule="evenodd" d="M52.509,24.392c0.355,0.76,1.266,1.088,2.025,0.731    c0.762-0.36,1.09-1.269,0.733-2.028c-0.361-0.764-1.27-1.088-2.031-0.733C52.475,22.723,52.148,23.628,52.509,24.392z"/>
		<path fill-rule="evenodd" clip-rule="evenodd" d="M48.353,10.174c0.358,0.759,1.266,1.088,2.026,0.729    c0.764-0.359,1.088-1.265,0.733-2.024c-0.357-0.764-1.268-1.09-2.031-0.734C48.32,8.505,47.995,9.411,48.353,10.174z"/>
		<path fill-rule="evenodd" clip-rule="evenodd" d="M52.509,11.08c0.355,0.762,1.266,1.089,2.023,0.732    c0.766-0.36,1.092-1.268,0.735-2.029c-0.357-0.763-1.27-1.088-2.029-0.731C52.475,9.413,52.148,10.317,52.509,11.08z"/>
		<path fill-rule="evenodd" clip-rule="evenodd" d="M55.394,14.801c0.36,0.761,1.268,1.088,2.028,0.729    c0.764-0.36,1.087-1.266,0.733-2.026c-0.36-0.764-1.27-1.091-2.027-0.733C55.361,13.132,55.038,14.037,55.394,14.801z"/>
		<path fill-rule="evenodd" clip-rule="evenodd" d="M55.558,19.977c0.356,0.763,1.264,1.09,2.023,0.732    c0.765-0.359,1.09-1.267,0.732-2.026c-0.356-0.765-1.268-1.09-2.028-0.732C55.523,18.308,55.198,19.215,55.558,19.977z"/>
		<path fill-rule="evenodd" clip-rule="evenodd" d="M46.816,11.152c-0.357,0.76-1.266,1.088-2.028,0.728    c-0.762-0.357-1.086-1.266-0.729-2.027c0.358-0.762,1.268-1.087,2.026-0.729C46.851,9.481,47.176,10.39,46.816,11.152z"/>
		<path fill-rule="evenodd" clip-rule="evenodd" d="M43.928,14.871c-0.357,0.761-1.266,1.09-2.027,0.73    c-0.761-0.357-1.086-1.266-0.732-2.025c0.359-0.765,1.269-1.089,2.03-0.733C43.965,13.202,44.287,14.109,43.928,14.871z"/>
		<path fill-rule="evenodd" clip-rule="evenodd" d="M43.769,20.051c-0.359,0.759-1.266,1.088-2.028,0.729    c-0.764-0.36-1.089-1.268-0.733-2.026c0.36-0.765,1.268-1.091,2.032-0.733C43.803,18.378,44.127,19.287,43.769,20.051z"/>
		<path fill-rule="evenodd" clip-rule="evenodd" d="M24.219,34.159c0.357,0.76,1.266,1.09,2.027,0.728    c0.761-0.356,1.089-1.264,0.73-2.026c-0.357-0.762-1.266-1.09-2.028-0.732C24.187,32.492,23.86,33.397,24.219,34.159z"/>
		<circle fill-rule="evenodd" clip-rule="evenodd" cx="21.573" cy="30.462" r="1.524"/>
		<path fill-rule="evenodd" clip-rule="evenodd" d="M15.258,31.11c0.359,0.76,1.267,1.088,2.026,0.734    c0.763-0.36,1.09-1.268,0.733-2.029c-0.36-0.765-1.268-1.089-2.03-0.732C15.225,29.441,14.898,30.349,15.258,31.11z"/>
		<circle fill-rule="evenodd" clip-rule="evenodd" cx="12.988" cy="33.509" r="1.526"/>
		<path fill-rule="evenodd" clip-rule="evenodd" d="M11.612,38.934c0.354,0.76,1.266,1.088,2.028,0.728    c0.761-0.36,1.088-1.268,0.729-2.025c-0.357-0.764-1.267-1.09-2.029-0.73C11.578,37.263,11.252,38.174,11.612,38.934z"/>
		<path fill-rule="evenodd" clip-rule="evenodd" d="M14.66,42.275c0.357,0.762,1.266,1.09,2.025,0.73    c0.765-0.358,1.089-1.267,0.733-2.028c-0.357-0.762-1.267-1.088-2.029-0.73C14.625,40.608,14.3,41.518,14.66,42.275z"/>
		<circle fill-rule="evenodd" clip-rule="evenodd" cx="24.624" cy="40.102" r="1.525"/>
		<path fill-rule="evenodd" clip-rule="evenodd" d="M19.234,42.983c0.36,0.758,1.27,1.088,2.028,0.728    c0.765-0.357,1.091-1.266,0.733-2.025c-0.359-0.764-1.266-1.09-2.031-0.734C19.204,41.313,18.878,42.222,19.234,42.983z"/>
		<path fill-rule="evenodd" clip-rule="evenodd" d="M75.248,34.159c-0.36,0.76-1.266,1.088-2.027,0.728    c-0.764-0.358-1.09-1.264-0.734-2.024c0.36-0.766,1.271-1.09,2.03-0.732C75.28,32.492,75.604,33.397,75.248,34.159z"/>
		<path fill-rule="evenodd" clip-rule="evenodd" d="M79.271,31.112c-0.356,0.758-1.268,1.088-2.027,0.728    c-0.763-0.355-1.088-1.266-0.732-2.023c0.356-0.766,1.27-1.093,2.029-0.735C79.306,29.441,79.629,30.349,79.271,31.112z"/>
		<path fill-rule="evenodd" clip-rule="evenodd" d="M84.208,31.112c-0.359,0.76-1.268,1.088-2.027,0.728    c-0.762-0.355-1.09-1.264-0.733-2.025c0.359-0.764,1.268-1.087,2.029-0.733C84.242,29.441,84.564,30.35,84.208,31.112z"/>
		<path fill-rule="evenodd" clip-rule="evenodd" d="M87.855,34.159c-0.359,0.76-1.27,1.088-2.029,0.73    c-0.762-0.358-1.088-1.268-0.728-2.028c0.355-0.764,1.264-1.086,2.025-0.73C87.89,32.492,88.21,33.399,87.855,34.159z"/>
		<path fill-rule="evenodd" clip-rule="evenodd" d="M87.855,38.934c-0.359,0.758-1.27,1.088-2.029,0.728    c-0.76-0.358-1.088-1.268-0.731-2.025c0.361-0.766,1.268-1.09,2.029-0.73C87.89,37.267,88.212,38.17,87.855,38.934z"/>
		<path fill-rule="evenodd" clip-rule="evenodd" d="M84.805,42.277c-0.354,0.76-1.267,1.088-2.024,0.729    c-0.766-0.358-1.09-1.267-0.733-2.024c0.357-0.766,1.268-1.092,2.029-0.734C84.838,40.608,85.164,41.514,84.805,42.277z"/>
		<path fill-rule="evenodd" clip-rule="evenodd" d="M76.222,40.75c-0.357,0.762-1.268,1.092-2.025,0.731    c-0.766-0.359-1.092-1.266-0.733-2.027c0.359-0.764,1.268-1.088,2.031-0.732C76.254,39.082,76.58,39.99,76.222,40.75z"/>
		<path fill-rule="evenodd" clip-rule="evenodd" d="M80.229,42.983c-0.358,0.76-1.266,1.088-2.028,0.729    c-0.762-0.359-1.09-1.268-0.733-2.029c0.362-0.762,1.27-1.088,2.035-0.732C80.261,41.313,80.589,42.222,80.229,42.983z"/>
		<path fill-rule="evenodd" clip-rule="evenodd" d="M47.445,50.668c-3.868-0.764-8.913-12.375-8.466-17.159    C38.979,33.509,48.207,43.134,47.445,50.668z"/>
		<path fill-rule="evenodd" clip-rule="evenodd" d="M52.005,50.668c3.867-0.764,8.91-12.375,8.468-17.159    C60.473,33.509,51.24,43.134,52.005,50.668z"/>
		<path fill-rule="evenodd" clip-rule="evenodd" d="M47.97,61.968c-9.02,3.245-16.705-7.114-19.976-11.3    C35.566,49.966,43.432,55.195,47.97,61.968z"/>
		<path fill-rule="evenodd" clip-rule="evenodd" d="M51.543,61.968c9.021,3.245,16.706-7.112,19.979-11.3    C63.948,49.966,56.084,55.195,51.543,61.968z"/>
		<path d="M50.895,94l-0.054-31.395c4.595-16.221,16.61-23.657,25.655-25.223c0.16,0.648,0.481,1.18,0.989,1.69    c1.49,1.488,3.901,1.446,5.392-0.046c1.487-1.486,1.487-3.919,0-5.411c-1.49-1.49-3.905-1.498-5.392-0.012    c-0.682,0.684-1.037,1.556-1.094,2.444c-8.74,1.49-20.168,8.07-25.559,22.462l-0.066-36.74c0.848-0.189,1.651-0.603,2.312-1.26    c1.85-1.852,1.85-4.848,0-6.699c-1.85-1.846-4.843-1.848-6.696,0.001c-1.845,1.847-1.845,4.847,0.002,6.693    c0.58,0.582,1.279,0.958,2.017,1.173l0.066,36.362c-5.464-14.074-16.749-20.524-25.393-21.996c-0.06-0.892-0.414-1.768-1.095-2.45    c-1.489-1.486-3.901-1.49-5.392,0c-1.488,1.49-1.487,3.901-0.002,5.393c1.493,1.488,3.903,1.488,5.394-0.002    c0.508-0.506,0.829-1.126,0.989-1.774c8.939,1.548,20.792,8.999,25.504,24.832L48.529,94H50.895z M78.773,34.879    c0.778-0.78,2.038-0.778,2.819,0c0.78,0.78,0.78,2.044-0.006,2.824c-0.775,0.776-2.035,0.776-2.815-0.004    c-0.216-0.212-0.366-0.466-0.462-0.731c-0.136-0.38-0.15-0.788-0.05-1.172C78.346,35.459,78.512,35.139,78.773,34.879z     M20.697,37.698c-0.781,0.782-2.043,0.78-2.821,0.002c-0.781-0.78-0.781-2.042-0.002-2.822c0.778-0.778,2.04-0.78,2.818,0    c0.263,0.26,0.429,0.58,0.514,0.916c0.099,0.384,0.082,0.792-0.053,1.17C21.058,37.232,20.909,37.484,20.697,37.698z     M47.638,15.066c1.155-1.156,3.029-1.157,4.184,0.001c1.158,1.148,1.158,3.028,0,4.185c-1.155,1.155-3.027,1.153-4.184,0    C46.485,18.094,46.483,16.221,47.638,15.066z"/>
	</g>
</g>
<g id="Your_Icon">
</g>
</svg>